<svg xmlns="http://www.w3.org/2000/svg" width="1200" height="880" viewBox="0 0 1200 880" font-family="-apple-system, Segoe UI, Roboto, Helvetica, Arial, sans-serif">
  <defs>
    <marker id="arrow" viewBox="0 0 10 10" refX="8.5" refY="5" markerWidth="7" markerHeight="7" orient="auto-start-reverse">
      <path d="M 0 0 L 10 5 L 0 10 z" fill="#475569"/>
    </marker>
    <style>
      .title      { font-size: 26px; font-weight: 700; fill: #0f172a; }
      .subtitle   { font-size: 14px; fill: #475569; }
      .zone       { font-size: 13px; font-weight: 700; fill: #64748b; letter-spacing: .08em; }
      .box-title  { font-size: 15px; font-weight: 700; fill: #0f172a; }
      .box-sub    { font-size: 12px; fill: #475569; }
      .edge       { stroke: #475569; stroke-width: 1.6; fill: none; stroke-linejoin: round; stroke-linecap: round; }
      .edge-label { font-size: 11px; fill: #475569; stroke: #f8fafc; stroke-width: 3.5; paint-order: stroke; }
      .pill       { font-size: 12px; font-weight: 700; }
      .legend     { font-size: 12px; fill: #334155; }
    </style>
  </defs>

  <rect width="1200" height="880" fill="#f8fafc"/>
  <text x="40" y="50" class="title">Casefile — Autonomous Incident-Response Agent</text>
  <text x="40" y="76" class="subtitle">Architectural pattern: Direct Agent Extension over a custom MCP server — one agent on the model's native tool-calling, executing forensic tools via MCP.</text>

  <!-- Replit container zone -->
  <rect x="40" y="270" width="742" height="560" rx="12" fill="#f1f5f9" stroke="#cbd5e1" stroke-width="1.5"/>
  <text x="56" y="292" class="zone">REPLIT CONTAINER</text>

  <!-- Case Room (browser) -->
  <rect x="60" y="110" width="320" height="104" rx="10" fill="#eef2ff" stroke="#c7d2fe"/>
  <text x="80" y="140" class="box-title">Case Room</text>
  <text x="80" y="160" class="box-sub">React · Vite · wouter</text>
  <text x="80" y="180" class="box-sub">live timeline · evidence locker</text>
  <text x="80" y="200" class="box-sub">chain-of-custody · IR report</text>

  <!-- API server -->
  <rect x="60" y="300" width="320" height="124" rx="10" fill="#ffffff" stroke="#94a3b8"/>
  <text x="80" y="330" class="box-title">API Server — Express 5</text>
  <text x="80" y="350" class="box-sub">artifacts/api-server</text>
  <text x="80" y="370" class="box-sub">REST (cases · artifacts) + SSE</text>
  <text x="80" y="390" class="box-sub">Replit Auth (OIDC) · per-case ownership</text>
  <text x="80" y="410" class="box-sub">contract: lib/api-spec (OpenAPI → Orval)</text>

  <!-- Agent loop -->
  <rect x="440" y="300" width="320" height="164" rx="10" fill="#ffffff" stroke="#94a3b8"/>
  <text x="460" y="330" class="box-title">Casefile Agent — persistent loop</text>
  <text x="460" y="350" class="box-sub">lib/sift-agent</text>
  <text x="460" y="370" class="box-sub">triage → deep analysis → synthesis</text>
  <text x="460" y="390" class="box-sub">→ self-correction → finalize</text>
  <text x="460" y="410" class="box-sub">runInvestigation() · dispatchToolCall()</text>
  <text x="460" y="430" class="box-sub">emits thought · tool_call · finding</text>
  <text x="460" y="450" class="box-sub">bounded by iteration limit</text>

  <!-- SIFT MCP server -->
  <rect x="440" y="500" width="320" height="96" rx="10" fill="#eef2ff" stroke="#94a3b8"/>
  <text x="460" y="528" class="box-title">SIFT MCP Server</text>
  <text x="460" y="550" class="box-sub">lib/sift-mcp · @modelcontextprotocol/sdk</text>
  <text x="460" y="568" class="box-sub">wraps sift-tools as typed MCP tools</text>
  <text x="460" y="586" class="box-sub">in-process client + stdio entrypoint</text>

  <!-- Forensic tools -->
  <rect x="440" y="628" width="320" height="176" rx="10" fill="#ffffff" stroke="#94a3b8"/>
  <text x="460" y="658" class="box-title">Forensic tools (pure functions)</text>
  <text x="460" y="678" class="box-sub">lib/sift-tools — self-built SIFT-style</text>
  <text x="460" y="698" class="box-sub">(NOT the SANS SIFT Workstation)</text>
  <text x="460" y="718" class="box-sub">logParser · iocExtractor · entropyScanner</text>
  <text x="460" y="738" class="box-sub">timelineBuilder · networkAnalyzer</text>
  <text x="460" y="758" class="box-sub">pcapAnalyzer · diskImageAnalyzer</text>
  <text x="460" y="778" class="box-sub">mcpFetcher (only tool that egresses)</text>
  <text x="460" y="798" class="box-sub">all pure · reproducible · no DB writes</text>

  <!-- PostgreSQL -->
  <rect x="60" y="470" width="320" height="164" rx="10" fill="#fef9c3" stroke="#facc15"/>
  <text x="80" y="500" class="box-title">PostgreSQL + Drizzle — lib/db</text>
  <text x="80" y="520" class="box-sub">case_artifacts (SHA-256 at write)</text>
  <text x="80" y="540" class="box-sub">analysis_steps (structured reasoning)</text>
  <text x="80" y="560" class="box-sub">execution_logs (verified + output hash)</text>
  <text x="80" y="580" class="box-sub">incident_reports (severity · confidence)</text>
  <text x="80" y="600" class="box-sub">UPDATE/DELETE triggers on evidence</text>
  <text x="80" y="620" class="box-sub">loadVerifiedArtifact re-hashes reads</text>

  <!-- Output pipeline -->
  <rect x="60" y="700" width="320" height="104" rx="10" fill="#ffffff" stroke="#94a3b8"/>
  <text x="80" y="730" class="box-title">Output pipeline</text>
  <text x="80" y="750" class="box-sub">SSE live stream → Case Room timeline</text>
  <text x="80" y="770" class="box-sub">finalize → incident_reports → report</text>
  <text x="80" y="790" class="box-sub">execution_logs → chain-of-custody</text>

  <!-- External: OpenAI -->
  <rect x="840" y="320" width="300" height="104" rx="10" fill="#ffffff" stroke="#94a3b8"/>
  <text x="860" y="350" class="box-title">OpenAI gpt-5.4</text>
  <text x="860" y="370" class="box-sub">chat.completions + tool defs</text>
  <text x="860" y="390" class="box-sub">via Replit AI Integrations proxy</text>
  <text x="860" y="410" class="box-sub">(no API key in app code)</text>

  <!-- External: threat intel -->
  <rect x="840" y="652" width="300" height="104" rx="10" fill="#ffffff" stroke="#94a3b8"/>
  <text x="860" y="682" class="box-title">Public threat-intel</text>
  <text x="860" y="702" class="box-sub">ipinfo · ipapi · AlienVault OTX</text>
  <text x="860" y="722" class="box-sub">fixed server-side templates</text>
  <text x="860" y="742" class="box-sub">reached only via mcpFetcher</text>

  <!-- Edges -->
  <line x1="210" y1="214" x2="210" y2="300" class="edge" marker-start="url(#arrow)" marker-end="url(#arrow)"/>
  <text x="220" y="261" class="edge-label">REST · SSE</text>

  <line x1="380" y1="362" x2="440" y2="362" class="edge" marker-end="url(#arrow)"/>
  <text x="410" y="354" text-anchor="middle" class="edge-label">runInvestigation()</text>

  <line x1="760" y1="372" x2="840" y2="372" class="edge" marker-start="url(#arrow)" marker-end="url(#arrow)"/>
  <text x="800" y="364" text-anchor="middle" class="edge-label">tool_calls ⇄ messages</text>

  <line x1="600" y1="464" x2="600" y2="500" class="edge" marker-end="url(#arrow)"/>
  <text x="610" y="486" class="edge-label">MCP tools/call</text>

  <line x1="600" y1="596" x2="600" y2="628" class="edge" marker-end="url(#arrow)"/>
  <text x="610" y="616" class="edge-label">invokeTool()</text>

  <line x1="760" y1="704" x2="840" y2="704" class="edge" marker-start="url(#arrow)" marker-end="url(#arrow)"/>
  <text x="800" y="696" text-anchor="middle" class="edge-label">mcpFetcher · SSRF-gated</text>

  <polyline points="440,440 410,440 410,552 380,552" class="edge" marker-start="url(#arrow)" marker-end="url(#arrow)"/>
  <text x="418" y="500" class="edge-label">verified reads · writes</text>

  <line x1="220" y1="634" x2="220" y2="700" class="edge" marker-end="url(#arrow)"/>
  <text x="228" y="671" class="edge-label">reports · logs</text>

  <!-- Guardrail legend -->
  <g transform="translate(840,104)">
    <rect x="0" y="0" width="300" height="196" rx="10" fill="#ffffff" stroke="#cbd5e1"/>
    <text x="16" y="28" class="box-title">Guardrails</text>

    <rect x="16" y="40" width="14" height="14" rx="3" fill="#fde047" stroke="#eab308"/>
    <text x="40" y="52" class="pill" fill="#854d0e">Architectural (enforced)</text>
    <text x="16" y="74" class="legend">DB immutability triggers</text>
    <text x="16" y="92" class="legend">read-time hash re-verification</text>
    <text x="16" y="110" class="legend">typed MCP tool allow-list (no shell)</text>
    <text x="16" y="128" class="legend">fixed-template fetch_url + SSRF</text>

    <rect x="16" y="144" width="14" height="14" rx="3" fill="#dbeafe" stroke="#60a5fa"/>
    <text x="40" y="156" class="pill" fill="#1e3a8a">Prompt-based (advisory)</text>
    <text x="16" y="178" class="legend">evidence-grounding rule</text>
    <text x="16" y="192" class="legend">four-beat cycle · surface conflicts</text>
  </g>
</svg>
